<svg width="116" height="116" viewBox="0 0 116 116" fill="none" xmlns="http://www.w3.org/2000/svg">
<path d="M33.1189 78.4712C34.2076 78.4095 35.2135 78.4474 36.2859 78.6558C37.9413 78.9696 39.5103 79.6346 40.8877 80.6048C42.3185 81.6323 43.3616 82.8523 44.5548 84.1262L48.2189 88.0361L51.182 91.1955C51.9025 91.967 52.794 92.8777 53.3722 93.7387C54.9038 96.0275 55.4596 98.8329 54.9166 101.534C54.3735 104.204 52.7978 106.551 50.5325 108.065C47.4424 110.13 43.736 110.377 40.3854 108.806C38.938 108.128 37.3293 107.159 35.7831 106.847C35.6717 106.827 35.5601 106.808 35.4484 106.79C31.2646 106.077 28.8441 109.005 24.8953 109.413C15.6161 110.371 9.76996 99.1235 15.8138 92.0559C16.4559 91.3048 17.1924 90.5996 17.8812 89.8871C18.9314 88.7815 19.9874 87.681 21.0492 86.5867L24.0466 83.5065C25.113 82.4134 26.2286 81.1888 27.504 80.363C29.1915 79.28 31.1201 78.6304 33.1189 78.4712Z" fill="#1BA0AC" fill-opacity="0.3"/>
<path d="M81.1937 29.7577C83.9861 29.5726 86.6272 30.1946 88.9597 31.7829C90.3802 32.7499 91.4972 34.061 92.6651 35.3045L96.2006 39.076L99.2173 42.294C100.1 43.2397 100.959 44.0832 101.672 45.1733C103.168 47.4874 103.674 50.3042 103.077 52.994C102.478 55.6692 100.843 57.9977 98.5302 59.4692C95.475 61.4148 91.8846 61.6102 88.6147 60.0939C87.154 59.4165 85.6445 58.4938 84.0965 58.1432C79.3902 57.1951 77.324 60.1987 73.264 60.6671C70.5113 60.9985 67.7421 60.2021 65.5852 58.4604C60.6716 54.5266 60.129 46.9251 64.7118 42.5816C65.0284 42.2813 65.3604 41.8963 65.6668 41.5747C66.9378 40.2497 68.2162 38.9321 69.5025 37.622C70.3402 36.7668 71.1723 35.9061 71.9981 35.0399C73.0482 33.9392 74.2688 32.5873 75.5302 31.7549C77.2226 30.6292 79.1693 29.9428 81.1937 29.7577Z" fill="#1BA0AC" fill-opacity="0.3"/>
<path d="M24.0756 55.7524C25.6469 55.6325 27.1177 56.0005 28.3775 56.9595C32.8844 60.3908 33.3163 67.911 30.0277 72.2984C28.9163 73.7807 27.3389 74.901 25.5023 75.1604C23.7755 75.3219 22.5091 74.9571 21.0845 73.9551C15.1647 69.792 16.2319 56.9352 24.0756 55.7524Z" fill="#1BA0AC" fill-opacity="0.3"/>
<path d="M42.7128 54.958C47.2093 54.4734 50.1627 58.6993 50.7474 62.6987C51.28 66.3424 50.3588 70.3571 47.4906 72.8447C46.512 73.6938 45.4606 74.1645 44.1936 74.365C42.8542 74.6204 41.1431 74.0914 40.0352 73.3199C34.6521 69.5698 34.6822 59.7426 40.0344 55.9841C40.8475 55.413 41.7534 55.1372 42.7128 54.958Z" fill="#1BA0AC" fill-opacity="0.3"/>
<path d="M72.8692 6.99023C74.4869 7.02252 75.8525 7.55851 77.1127 8.67099C82.1577 13.1245 81.3806 23.9274 74.5384 26.2564C74.066 26.4171 73.4996 26.4614 72.9927 26.4883C71.426 26.4683 69.9919 25.8811 68.7984 24.8439C63.8039 20.5029 64.4275 9.92648 70.957 7.332C71.528 7.10516 72.2643 7.02682 72.8692 6.99023Z" fill="#1BA0AC" fill-opacity="0.3"/>
<path d="M91.4372 6.19636C92.7274 6.17387 93.8976 6.51338 94.9772 7.21589C101.384 11.3845 100.245 24.689 91.9492 25.6925C90.395 25.792 88.6969 25.0845 87.5414 24.0589C84.0371 20.9483 83.3874 15.2623 85.1982 11.0972C86.3508 8.44454 88.4432 6.39013 91.4372 6.19636Z" fill="#1BA0AC" fill-opacity="0.3"/>
<path d="M106.835 19.1051C110.711 18.7743 112.969 21.6478 113.414 25.256C114.002 30.0285 111.08 35.9511 106.022 36.865C104.595 36.9713 103.189 36.7458 102.054 35.8298C96.5101 31.3517 100.029 20.0521 106.835 19.1051Z" fill="#1BA0AC" fill-opacity="0.3"/>
<path d="M58.7013 67.819C60.0352 67.7256 61.3883 67.9606 62.4724 68.7978C68.1093 73.1551 64.6203 84.5393 57.8443 85.5793C54.0879 86.0024 51.6938 83.1448 51.2253 79.6512C50.8377 76.5813 51.6714 73.4814 53.5467 71.0198C54.8372 69.3438 56.5656 68.0926 58.7013 67.819Z" fill="#1BA0AC" fill-opacity="0.3"/>
<path d="M56.1718 19.4488C63.7206 19.0433 68.4535 31.9698 62.0016 36.3416C61.2935 36.8213 60.4728 37.0466 59.6374 37.1452C53.3374 37.3843 49.2952 29.1334 51.1616 23.6892C51.9934 21.2629 53.5806 19.7183 56.1718 19.4488Z" fill="#1BA0AC" fill-opacity="0.3"/>
<path d="M8.18095 68.1611C13.1538 68.2212 16.4475 73.3268 16.7928 77.862C17.0747 81.5651 15.3395 85.6206 11.1968 85.8744C1.79598 85.7639 -1.05328 68.8544 8.18095 68.1611Z" fill="#1BA0AC" fill-opacity="0.3"/>
</svg>
